<svg width="800" height="800" viewBox="0 0 800 800" fill="none" xmlns="http://www.w3.org/2000/svg">
<rect x="38" y="317.846" width="159.963" height="163.981" rx="79.9813" fill="#1500FF"/>
<path d="M173.074 371.871L173.194 401.603C173.194 408.237 173.154 413.192 173.074 416.469C172.914 424.621 171.196 431.175 167.919 436.131C164.642 441.006 159.646 444.723 152.933 447.28C146.219 449.758 137.227 451.556 125.958 452.675C121.002 443.644 116.687 436.85 113.01 432.294C104.698 441.326 90.9106 448 71.6486 452.315C69.011 442.565 65.1346 432.974 60.0194 423.542C74.0064 422.024 83.5175 418.427 88.5528 412.752C91.6699 409.316 93.7879 404.6 94.9068 398.606H68.4116V371.871H96.3455V361.201H127.636C127.636 365.996 127.596 369.553 127.516 371.871H173.074ZM119.004 423.782C125.718 423.942 130.673 423.622 133.87 422.823C137.147 422.024 139.465 420.425 140.824 418.028C142.183 415.63 142.862 411.913 142.862 406.878C142.862 404.48 142.742 401.723 142.502 398.606H126.078C124.719 408.996 122.361 417.388 119.004 423.782Z" fill="white"/>
<rect x="226" y="318" width="160" height="164" rx="80" fill="#1500FF"/>
<path d="M258.96 360.92H351.72V379.76H258.96V360.92ZM349.56 383.96L363 402.92C357.96 413.16 351.6 421.56 343.92 428.12C336.32 434.68 326.6 440 314.76 444.08C303 448.08 288.08 451.36 270 453.92C268.4 449.36 266.28 444.48 263.64 439.28C261.08 434.08 258.24 429.4 255.12 425.24C290.48 424.36 313.4 418.84 323.88 408.68C294.76 408.68 271.64 409.08 254.52 409.88V383.96H349.56Z" fill="white"/>
<rect x="602" y="318" width="160" height="164" rx="80" fill="#294260"/>
<path d="M741.4 369.44C739.8 379.6 739 388.6 739 396.44H732.16C730.32 404.6 727.44 412.08 723.52 418.88C719.6 425.68 714.76 431.4 709 436.04C704.44 439.8 699.28 442.84 693.52 445.16C687.76 447.48 680.56 449.36 671.92 450.8C663.36 452.16 652.44 453.2 639.16 453.92C636.6 446.72 634.24 440.88 632.08 436.4C629.92 431.92 627.48 427.88 624.76 424.28C628.2 424.44 632.88 424.52 638.8 424.52C634.48 417.72 628.52 411.04 620.92 404.48C629.16 399.76 635.44 393.76 639.76 386.48C644.08 379.2 646.68 370.32 647.56 359.84H681.28C680.72 363.04 680.12 366.24 679.48 369.44H741.4ZM684.28 415.76C687.64 413.44 690.68 410.64 693.4 407.36C696.2 404 698.28 400.36 699.64 396.44H669.64L667.84 399.56C662.8 408.36 656.12 416.64 647.8 424.4C656.92 424.08 664.28 423.24 669.88 421.88C675.56 420.44 680.36 418.4 684.28 415.76Z" fill="white"/>
<rect x="607" y="323" width="150" height="154" rx="75" stroke="white" stroke-width="3" stroke-linecap="round" stroke-dasharray="6 6"/>
<rect x="414" y="318" width="160" height="164" rx="80" fill="#294260"/>
<path d="M508.76 399.8L534.8 396.08C536.96 403.28 539.68 409.6 542.96 415.04C546.32 420.48 550.56 425.96 555.68 431.48C545.52 437.72 537.32 443.68 531.08 449.36C525.48 441.04 521 433.44 517.64 426.56C514.36 419.6 511.4 410.84 508.76 400.28V433.04C508.76 438.4 507.76 442.44 505.76 445.16C503.84 447.8 500.48 449.64 495.68 450.68C490.96 451.64 483.84 452.08 474.32 452C474.32 449.28 473.84 445.56 472.88 440.84C472 436.12 470.88 432 469.52 428.48C466.72 434.24 462.56 441.2 457.04 449.36C450.8 443.68 442.6 437.72 432.44 431.48C437.56 425.96 441.76 420.48 445.04 415.04C448.4 409.6 451.16 403.28 453.32 396.08L479.36 399.8V393.8H439.88V368H479.36V361.04H508.76V368H528.2C526.04 365.2 524.96 362 524.96 358.4C524.96 355.6 525.64 353 527 350.6C528.44 348.12 530.36 346.2 532.76 344.84C535.24 343.4 537.88 342.68 540.68 342.68C543.48 342.68 546.08 343.4 548.48 344.84C550.96 346.2 552.88 348.12 554.24 350.6C555.68 353 556.4 355.6 556.4 358.4C556.4 361.76 555.44 364.8 553.52 367.52C551.68 370.24 549.24 372.16 546.2 373.28V393.8H508.76V399.8ZM540.68 349.76C538.28 349.76 536.24 350.64 534.56 352.4C532.88 354.08 532.04 356.08 532.04 358.4C532.04 360.8 532.88 362.88 534.56 364.64C536.24 366.32 538.28 367.16 540.68 367.16C543.08 367.16 545.12 366.32 546.8 364.64C548.48 362.88 549.32 360.8 549.32 358.4C549.32 356.08 548.48 354.08 546.8 352.4C545.12 350.64 543.08 349.76 540.68 349.76ZM470.72 425.96C472 426.04 473.52 426.08 475.28 426.08C477.12 426.08 478.24 425.8 478.64 425.24C479.12 424.6 479.36 423.16 479.36 420.92V400.28C476.8 410.44 473.92 419 470.72 425.96Z" fill="white"/>
<rect x="419" y="323" width="150" height="154" rx="75" stroke="white" stroke-width="3" stroke-linecap="round" stroke-dasharray="6 6"/>
</svg>
